<svg width="93" height="91" viewBox="0 0 93 91" fill="none" xmlns="http://www.w3.org/2000/svg">
<g id="Group">
<g id="Rectangle" filter="url(#filter0_ii_14997_22254)">
<rect x="0.667969" width="92" height="92" rx="8.17134" fill="url(#paint0_linear_14997_22254)"/>
</g>
<g id="Mask Group">
<mask id="mask0_14997_22254" style="mask-type:alpha" maskUnits="userSpaceOnUse" x="0" y="0" width="93" height="86">
<rect id="Mask" x="0.667969" width="92" height="85.8667" rx="8.17134" fill="url(#paint1_linear_14997_22254)"/>
</mask>
<g mask="url(#mask0_14997_22254)">
<g id="logo" opacity="0.5">
<path id="Vector" d="M69.2908 32.4689C69.2278 31.5038 69.0705 30.5493 68.4306 29.6787C68.2104 29.385 67.9691 29.1437 67.7069 28.913L67.7593 26.9515C67.8537 23.2697 67.1195 19.8082 65.7139 16.7033V16.6719C63.4692 10.7769 63.9202 4.53568 64.9167 -0.268452C65.4307 -2.67052 66.0705 -4.68448 66.5845 -6.13201C66.6789 -6.35229 66.7733 -6.58305 66.8363 -6.80333L67.4446 -8.4082L65.9447 -7.86276C65.4936 -7.70541 64.9167 -7.47465 64.3083 -7.2229C62.3573 -6.42571 59.7245 -5.20894 56.9762 -3.4782C51.6267 -0.111111 45.9309 5.10211 44.1373 12.7279H43.9485C43.7596 9.46568 44.3366 6.4867 45.354 3.79093L45.7421 2.79444L44.6827 2.76298C31.6234 2.47976 20.8613 12.7803 20.5676 25.8815L20.5152 28.4095C20.3159 28.5983 20.1376 28.7976 19.9593 29.0179C19.3194 29.8465 18.9313 30.906 18.8998 31.871C18.8998 32.9933 18.8684 34.1472 18.8684 35.2695V35.3954C18.8369 36.4863 18.8369 37.5457 18.8369 38.5947C18.8054 39.5597 19.1621 40.231 19.6656 40.6401C19.8229 40.7765 20.0222 40.8709 20.232 40.9443L19.7914 61.451C19.7914 62.3846 19.9173 65.3216 20.0746 66.2551C21.5117 70.2306 23.7879 71.7935 27.8892 73.7131C31.9906 75.6326 37.2353 76.5033 42.8051 76.6921H42.868C42.8995 76.6921 42.9625 76.6921 43.0569 76.6921C43.2457 76.7235 43.5079 76.7235 43.8226 76.7235C44.4624 76.7235 45.396 76.7235 46.4764 76.6921C48.6896 76.5977 51.6267 76.3039 54.6057 75.6012C57.5532 74.8669 60.5951 73.7131 62.9342 71.7621C65.3048 69.7796 66.9097 67.0523 66.9726 63.3076L67.4446 41.731C67.7908 41.6785 68.095 41.5422 68.3467 41.3429C68.8607 40.9548 69.1754 40.3149 69.2069 39.3604C69.2278 37.1786 69.1964 34.7765 69.2908 32.4689Z" fill="#6F0BD7"/>
<g id="Group_2">
<path id="Vector_2" d="M24.092 63.2132V40.3149C23.5151 36.0562 23.3892 31.892 24.4171 27.8955C25.8227 8.17549 40.4869 3.10912 47.5357 3.10912C47.5357 4.87134 46.9273 10.9866 47.5043 13.3572C54.5426 -2.14605 65.1369 -6.65648 69.8466 -7.2334C68.441 -5.82782 66.8991 1.56718 66.3222 5.09161C66.2278 10.6929 68.0844 16.2313 69.8466 20.9411C71.2522 26.5738 72.0913 38.4268 70.3291 41.9408L69.8466 63.1713C68.441 74.4369 53.9972 76.0732 46.9483 75.4963C27.6164 73.776 24.6689 67.9125 24.092 63.2132Z" fill="url(#paint2_linear_14997_22254)"/>
<path id="Vector_3" fill-rule="evenodd" clip-rule="evenodd" d="M24.0282 28.1788L24.0912 25.3571C24.3744 12.2664 35.1365 1.95535 48.2062 2.23856L49.2657 2.27003L48.8776 3.26652C47.8496 5.9518 47.2727 8.93078 47.472 12.2035H47.6608C49.4545 4.57769 55.1502 -0.635525 60.4998 -4.00261C63.2585 -5.73336 65.8808 -6.95013 67.8318 -7.74732C68.4402 -7.99906 69.0171 -8.22983 69.4682 -8.38717L70.9682 -8.93262L70.3598 -7.32774C70.2968 -7.10747 70.2024 -6.8767 70.108 -6.65642C69.5941 -5.21938 68.9542 -3.19493 68.4402 -0.792866C67.4437 4.01126 67.0032 10.2524 69.2374 16.1475V16.1789C70.643 19.2838 71.3877 22.7453 71.2828 26.427L71.2199 28.7976L69.7514 27.969L69.7829 26.3956V26.3641C69.8773 22.8712 69.1745 19.6404 67.8633 16.7244V16.6929L67.8318 16.63C65.4298 10.3888 65.9438 3.79099 66.9717 -1.10755C67.4228 -3.18444 67.9682 -4.97812 68.4402 -6.39419C68.4088 -6.39419 68.3773 -6.36272 68.3773 -6.36272C66.4892 -5.597 63.9298 -4.4117 61.2655 -2.74389C55.9159 0.612709 50.4405 5.76299 48.972 13.1265L48.8461 13.7664L46.0874 13.609L46.0244 12.9692C45.7412 9.6021 46.1818 6.52871 47.1153 3.74903C35.3358 4.03224 25.7904 13.5146 25.5387 25.4306L25.5072 27.4131L24.0282 28.1788ZM25.245 40.2206L24.794 60.9371C24.7625 61.7972 24.8884 64.6189 25.0457 65.416C25.3709 67.0838 28.245 69.9999 32.0211 71.7831C35.8288 73.5768 40.8637 74.4369 46.3706 74.6362H46.4021H46.4335C46.465 74.6362 46.5279 74.6362 46.6223 74.6362C46.7797 74.6362 47.0419 74.6362 47.3566 74.6677C47.965 74.6677 48.8566 74.6677 49.9475 74.6362C52.0978 74.5418 54.9404 74.2796 57.7935 73.6082C60.6466 72.9054 63.4578 71.8146 65.5452 70.0838C67.5906 68.3531 68.9752 66.0139 69.0381 62.7517L69.5206 40.7555H70.9996L70.5171 62.7832C70.4542 66.5279 68.8493 69.2551 66.4787 71.2376C64.1396 73.1887 61.0977 74.3425 58.1502 75.0767C55.1712 75.7795 52.2237 76.0732 50.0209 76.1676C48.93 76.1991 48.0069 76.1991 47.3671 76.1991C47.0419 76.1991 46.7902 76.1991 46.6014 76.1676C46.507 76.1676 46.444 76.1676 46.4125 76.1676H46.3496C40.7798 75.9788 35.5246 75.1082 31.4337 73.1887C27.3429 71.2691 25.0667 69.6957 23.6192 65.7307C23.4618 64.7972 23.3359 61.8601 23.3359 60.9266L23.787 40.0213L25.245 40.2206Z" fill="#6F0BD7"/>
<path id="Vector_4" d="M25.6851 28.0528C25.6851 28.0528 22.832 28.7556 23.5033 34.745C23.5033 34.745 22.2551 40.703 26.5767 39.2555C26.5767 39.2555 46.3282 33.9059 69.3838 39.9268C69.3838 39.9268 72.3942 41.5631 71.7544 36.6961C71.7544 36.6961 73.4222 28.7241 68.1041 28.0213C68.1146 28.0528 49.3176 21.1718 25.6851 28.0528Z" fill="#E9EEFF"/>
<path id="Vector_5" d="M71.9538 29.1437C71.314 28.2836 70.4539 27.7067 69.5518 27.4444C55.2443 23.6368 40.2864 23.4375 25.9055 26.8361C24.9719 27.0249 24.1118 27.6647 23.4719 28.5039C22.8321 29.3325 22.444 30.392 22.4125 31.357C22.4125 32.4793 22.3811 33.6332 22.3811 34.7555V34.8814C22.3496 35.9723 22.3496 37.0317 22.3496 38.0807C22.3181 39.0457 22.6748 39.717 23.1782 40.1261C23.6922 40.5457 24.458 40.703 25.3915 40.5142C40.0242 36.9898 55.2338 37.252 69.772 41.1226C70.7056 41.3743 71.3769 41.217 71.8804 40.8394C72.3944 40.4513 72.7091 39.8114 72.7405 38.8569C72.7405 36.6436 72.7091 34.2416 72.8035 31.9444C72.7615 30.9689 72.5937 30.0039 71.9538 29.1437ZM70.9993 37.0527C70.9678 37.787 70.9678 38.7205 70.4853 39.0037C70.0028 39.287 68.8805 39.0037 68.0203 38.8149C54.5415 35.8674 40.4228 35.6786 26.839 38.3639C25.9789 38.5212 24.9195 38.8149 24.437 38.4898C23.9859 38.2065 23.9859 37.2415 24.0174 36.5387C24.0174 35.7415 24.0489 34.9024 24.0489 34.1052V34.0108C24.0803 33.1507 24.0803 32.3115 24.0803 31.4514C24.1118 30.7171 24.4684 29.9514 25.0768 29.2696C25.2342 29.1123 25.4649 28.9444 25.7167 28.7871C26.4195 28.336 27.2167 28.0528 28.0243 27.927C42.7199 25.3046 53.4191 25.462 67.7896 28.6297C69.0693 28.9864 69.4888 29.2381 70.0657 29.815C70.5797 30.329 70.8 30.843 70.8944 31.6087C70.9573 31.9654 70.9573 32.3115 70.9573 32.6682C70.9678 34.2625 70.9993 35.4793 70.9993 37.0527Z" fill="#6F0BD7"/>
<path id="Vector_6" d="M62.4824 34.5145C62.4509 34.4516 62.4509 34.4201 62.4195 34.3571C62.388 34.2627 62.325 34.1683 62.2621 34.0739C62.1992 33.9795 62.1362 33.8851 62.0733 33.7907L61.9474 33.6648L61.8216 33.539C61.4649 33.1823 60.9929 32.8677 60.4475 32.6054C59.902 32.3537 59.3251 32.1544 58.7167 31.997L58.2657 31.9026C58.1083 31.8712 57.9824 31.8397 57.8146 31.8397L57.3636 31.7768C57.3006 31.7768 57.2062 31.7453 57.1433 31.7453H56.8916L56.409 31.7138C56.2517 31.7138 56.0839 31.7138 55.9265 31.7138C55.7692 31.7138 55.6014 31.7138 55.444 31.7453C55.2867 31.7453 55.1188 31.7768 54.993 31.8082C54.0279 31.9656 53.1678 32.2907 52.4965 32.7418C52.528 32.6788 52.5594 32.5844 52.6224 32.5215C52.7482 32.3012 52.9056 32.0705 53.0419 31.8817C53.1364 31.7872 53.1993 31.6928 53.2622 31.5984C53.2937 31.567 53.3252 31.504 53.3881 31.4411L53.514 31.3152C53.5769 31.2208 53.7028 31.1264 53.7972 31.032C53.8916 30.9376 53.986 30.8432 54.0804 30.7488L54.2377 30.6229C54.3007 30.5915 54.3321 30.5285 54.3951 30.4971L54.5524 30.3712C54.6154 30.3397 54.6468 30.3083 54.7098 30.2453C54.93 30.088 55.1608 29.9621 55.3811 29.8572C55.507 29.7943 55.6328 29.7628 55.7377 29.6999C55.8007 29.6684 55.8636 29.6684 55.9265 29.6369C55.9895 29.6055 56.0524 29.6055 56.1153 29.574L56.2097 29.5425C56.2412 29.5111 56.3041 29.5111 56.3356 29.4481C56.3671 29.4167 56.3985 29.3852 56.43 29.3222C56.43 29.2908 56.4615 29.2593 56.43 29.1964C56.3985 29.1334 56.3671 29.102 56.2727 29.0705C56.2412 29.0705 56.2097 29.039 56.1783 29.039C56.1153 29.0076 56.0524 29.0076 55.9895 29.0076C55.9265 29.0076 55.8636 29.0076 55.7692 29.0076H55.6433H55.5174C55.1923 29.039 54.8461 29.1334 54.4895 29.2908C54.1328 29.4481 53.8182 29.6474 53.4615 29.8677L53.2412 30.0565C53.1783 30.1194 53.0839 30.1824 53.021 30.2453L52.8007 30.4341C52.7692 30.4656 52.7378 30.4971 52.7063 30.5285L52.6119 30.6229L52.3916 30.8432C52.3287 30.9061 52.2657 31.0005 52.2028 31.0635C52.1399 31.1264 52.0769 31.2208 52.014 31.3152C51.9511 31.4096 51.8881 31.4726 51.8566 31.567C51.4371 32.2068 51.2168 32.8467 51.2168 33.4236C51.2168 33.5495 51.2168 33.6753 51.2483 33.8117C51.2483 33.8746 51.2797 33.969 51.3112 34.032C51.3112 34.0634 51.3112 34.0949 51.3427 34.1264C51.3741 34.1893 51.4371 34.2208 51.5 34.2837C51.563 34.3152 51.6574 34.3467 51.7518 34.3467C51.8462 34.3467 51.9406 34.3467 52.0035 34.3152L52.0664 34.2837C52.486 34.1578 52.9266 34.0005 53.3461 33.8641C53.7657 33.7383 54.1748 33.6439 54.5629 33.539C54.951 33.4446 55.3601 33.4131 55.7482 33.3502C55.937 33.3502 56.1363 33.3187 56.3251 33.3187C56.4195 33.3187 56.5139 33.3187 56.6083 33.3187H56.8916C57.0804 33.3187 57.3111 33.3502 57.5314 33.3502C57.7517 33.3502 57.951 33.3816 58.1712 33.4131L58.4964 33.476C58.5908 33.476 58.6852 33.5075 58.8216 33.539L59.1468 33.6019C59.2412 33.6334 59.3356 33.6648 59.43 33.6648C59.8496 33.7593 60.2272 33.9166 60.5838 34.0844C60.7726 34.1788 60.9719 34.2732 61.1293 34.3676C61.2237 34.4306 61.3181 34.462 61.381 34.525C61.4754 34.5879 61.5383 34.6508 61.6327 34.6823L61.7901 34.7767C61.853 34.8082 61.9474 34.8397 62.0104 34.8397C62.1048 34.8397 62.1677 34.8397 62.2621 34.8082C62.325 34.7767 62.388 34.7452 62.4195 34.7138C62.4509 34.6823 62.4824 34.6194 62.4509 34.5564C62.5139 34.6194 62.5139 34.5879 62.4824 34.5145Z" fill="#6F0BD7"/>
<path id="Vector_7" d="M38.6599 34.8395C40.4851 34.8395 41.9536 33.3605 41.9536 31.5459C41.9536 29.7207 40.4746 28.2522 38.6599 28.2522C36.8348 28.2522 35.3663 29.7312 35.3663 31.5459C35.3558 33.3605 36.8348 34.8395 38.6599 34.8395Z" fill="#6F0BD7"/>
<path id="Vector_8" d="M36.9932 31.6404C37.4862 31.6404 37.8848 31.2418 37.8848 30.7488C37.8848 30.2558 37.4862 29.8572 36.9932 29.8572C36.5002 29.8572 36.1016 30.2558 36.1016 30.7488C36.1016 31.2313 36.5002 31.6404 36.9932 31.6404Z" fill="#E9EEFF"/>
<path id="Vector_9" d="M64.0462 44.9619C63.9517 45.4759 63.7944 46.1157 63.6266 46.85C63.1441 48.801 62.3469 51.4339 61.1301 54.0877C58.7071 59.4582 54.6372 64.7763 48.1338 65.605C41.6304 66.4337 36.9941 62.3743 33.8892 57.8848C32.3473 55.6401 31.2039 53.3429 30.4592 51.6122C30.2074 51.0038 29.9767 50.4583 29.8193 50.0388C30.1025 50.1017 30.4277 50.1332 30.8158 50.1961C32.3892 50.4164 34.7179 50.6472 37.8332 50.5842C43.7807 50.4269 52.5288 49.2101 64.0462 44.9619Z" fill="#6F0BD7"/>
<path id="Vector_10" d="M33.8252 50.5314C33.8252 50.5314 35.3986 52.9335 36.8356 54.5698C37.6328 55.4614 38.7867 55.9439 39.972 55.9125C43.4335 55.7866 52.0452 54.853 62.7654 48.9685C62.7654 48.9685 64.0451 44.9616 63.0171 45.3811C48.6781 51.5804 33.8252 50.5314 33.8252 50.5314Z" fill="#E9EEFF"/>
<path id="Vector_11" d="M50.0538 58.5035C45.7952 60.6119 43.005 63.1818 41.3477 64.7762C43.2672 65.5419 45.449 65.8356 47.8196 65.5419C55.0887 64.6083 58.0677 61.0629 60.5013 55.3882C57.9943 55.6504 53.2951 56.8986 50.0538 58.5035Z" fill="#E9EEFF"/>
<path id="Vector_12" d="M28.9268 49.3778C28.9268 49.3778 33.8568 67.6293 48.395 66.7692C48.395 66.7692 61.3284 66.6433 65.4298 44.1646C65.4298 44.1541 45.1538 52.7973 28.9268 49.3778ZM50.1887 64.8706C48.7517 65.2587 47.6293 65.3216 46.3496 65.2272C35.4302 64.493 31.3918 51.3917 31.3918 51.3917C46.0244 53.4057 63.3109 46.5247 63.3109 46.5247C60.1431 59.5944 54.0593 63.8112 50.1887 64.8706Z" fill="#6F0BD7"/>
</g>
</g>
</g>
</g>
<rect id="Rectangle_2" x="2.45545" y="1.78748" width="88.425" height="82.2917" rx="6.38386" stroke="url(#paint3_linear_14997_22254)" stroke-width="3.57496"/>
</g>
<defs>
<filter id="filter0_ii_14997_22254" x="0.667969" y="0" width="92" height="94.0428" filterUnits="userSpaceOnUse" color-interpolation-filters="sRGB">
<feFlood flood-opacity="0" result="BackgroundImageFix"/>
<feBlend mode="normal" in="SourceGraphic" in2="BackgroundImageFix" result="shape"/>
<feColorMatrix in="SourceAlpha" type="matrix" values="0 0 0 0 0 0 0 0 0 0 0 0 0 0 0 0 0 0 127 0" result="hardAlpha"/>
<feOffset dy="2.04283"/>
<feGaussianBlur stdDeviation="3.06425"/>
<feComposite in2="hardAlpha" operator="arithmetic" k2="-1" k3="1"/>
<feColorMatrix type="matrix" values="0 0 0 0 0.341176 0 0 0 0 0.698039 0 0 0 0 0.992157 0 0 0 1 0"/>
<feBlend mode="normal" in2="shape" result="effect1_innerShadow_14997_22254"/>
<feColorMatrix in="SourceAlpha" type="matrix" values="0 0 0 0 0 0 0 0 0 0 0 0 0 0 0 0 0 0 127 0" result="hardAlpha"/>
<feOffset dy="-6.1285"/>
<feComposite in2="hardAlpha" operator="arithmetic" k2="-1" k3="1"/>
<feColorMatrix type="matrix" values="0 0 0 0 0.490196 0 0 0 0 0.0705882 0 0 0 0 0.921569 0 0 0 1 0"/>
<feBlend mode="normal" in2="effect1_innerShadow_14997_22254" result="effect2_innerShadow_14997_22254"/>
</filter>
<linearGradient id="paint0_linear_14997_22254" x1="50.5041" y1="-3.04662e-09" x2="50.2146" y2="85.615" gradientUnits="userSpaceOnUse">
<stop offset="0.130023" stop-color="#7B14EB"/>
<stop offset="0.927083" stop-color="#AF6FF1"/>
</linearGradient>
<linearGradient id="paint1_linear_14997_22254" x1="46.668" y1="21.2963" x2="46.668" y2="85.8667" gradientUnits="userSpaceOnUse">
<stop stop-color="#D9D9D9"/>
<stop offset="1" stop-color="#D9D9D9" stop-opacity="0"/>
</linearGradient>
<linearGradient id="paint2_linear_14997_22254" x1="47.4879" y1="9.30989" x2="47.4879" y2="75.5965" gradientUnits="userSpaceOnUse">
<stop stop-color="#D5ADFF"/>
<stop offset="0.822917" stop-color="#C387FF"/>
</linearGradient>
<linearGradient id="paint3_linear_14997_22254" x1="46.668" y1="0" x2="46.668" y2="85.8667" gradientUnits="userSpaceOnUse">
<stop stop-color="#B780F0"/>
<stop offset="1" stop-color="#B780F0" stop-opacity="0"/>
</linearGradient>
</defs>
</svg>
